<svg width="100" height="50" viewBox="0 0 100 50" fill="none" xmlns="http://www.w3.org/2000/svg">
<mask id="mask0_203_3208" style="mask-type:luminance" maskUnits="userSpaceOnUse" x="6" y="10" width="22" height="30">
<path d="M6.16254 10.4H27.4667V39.4667H6.16254V10.4Z" fill="white"/>
</mask>
<g mask="url(#mask0_203_3208)">
<path d="M16.7968 26.5052C13.6489 26.5052 11.0948 23.9521 11.0948 20.801C11.0948 17.6552 13.6489 15.101 16.7968 15.101C19.9468 15.101 22.4958 17.6552 22.4958 20.801C22.4958 23.9521 19.9468 26.5052 16.7968 26.5052ZM16.7968 10.4802C10.9239 10.4802 6.16455 15.2396 6.16455 21.1125C6.16455 26.9875 16.7968 39.3438 16.7968 39.3438C16.7968 39.3438 27.4323 26.9875 27.4323 21.1125C27.4323 15.2396 22.6718 10.4802 16.7968 10.4802Z" fill="#7B1113"/>
</g>
<mask id="mask1_203_3208" style="mask-type:luminance" maskUnits="userSpaceOnUse" x="10" y="13" width="18" height="19">
<path d="M10.2833 13.4625H27.4375V31.4667H10.2833V13.4625Z" fill="white"/>
</mask>
<g mask="url(#mask1_203_3208)">
<path d="M22.0875 20.6208C22.0239 21.8708 21.4875 23.0896 20.4833 23.9948C19.4822 24.901 18.2177 25.3115 16.9666 25.249C15.7156 25.1854 14.4979 24.649 13.5906 23.6479C12.6864 22.6448 12.277 21.3802 12.3385 20.1271C12.402 18.8781 12.9385 17.6604 13.9395 16.7552C14.9427 15.85 16.2083 15.4385 17.4583 15.5021C18.7104 15.5646 19.927 16.1 20.8333 17.1021C21.7385 18.1042 22.1479 19.3708 22.0875 20.6208ZM27.001 29.5083L22.5697 24.6042C23.4687 23.4667 23.9656 22.1031 24.0354 20.7208C24.126 18.9771 23.5437 17.1906 22.2822 15.7927C21.0187 14.3958 19.2989 13.6385 17.5562 13.551C15.8135 13.4615 14.026 14.0427 12.6322 15.3063C11.2322 16.5698 10.477 18.2875 10.3895 20.0292C10.2979 21.7729 10.8802 23.5594 12.1427 24.9563C13.4062 26.3531 15.125 27.1115 16.8687 27.199C18.25 27.2698 19.6593 26.9115 20.8812 26.1313L25.3114 31.0344C25.7343 31.5021 26.4541 31.5375 26.9197 31.1156C27.3875 30.6948 27.4229 29.975 27.001 29.5083Z" fill="#F9FAFB"/>
</g>
<mask id="mask2_203_3208" style="mask-type:luminance" maskUnits="userSpaceOnUse" x="10" y="14" width="10" height="12">
<path d="M10.9333 14.4H19.4667V25.0667H10.9333V14.4Z" fill="white"/>
</mask>
<g mask="url(#mask2_203_3208)">
<mask id="mask3_203_3208" style="mask-type:luminance" maskUnits="userSpaceOnUse" x="8" y="12" width="12" height="13">
<path d="M8.99274 22.2583L14.7438 12.45L19.3896 15.174L13.6386 24.9823L8.99274 22.2583Z" fill="white"/>
</mask>
<g mask="url(#mask3_203_3208)">
<mask id="mask4_203_3208" style="mask-type:luminance" maskUnits="userSpaceOnUse" x="8" y="12" width="12" height="13">
<path d="M8.99274 22.2583L14.7438 12.45L19.3896 15.174L13.6386 24.9823L8.99274 22.2583Z" fill="white"/>
</mask>
<g mask="url(#mask4_203_3208)">
<path d="M19.274 15.1719C16.7792 14.4771 14.0334 15.5104 12.6625 17.849C11.2907 20.1885 11.7292 23.0896 13.5552 24.9271C11.1073 23.2646 10.3365 19.9656 11.8552 17.376C13.3729 14.7875 16.6282 13.849 19.274 15.1719Z" fill="#7B1113"/>
</g>
</g>
</g>
<mask id="mask5_203_3208" style="mask-type:luminance" maskUnits="userSpaceOnUse" x="30" y="16" width="64" height="17">
<path d="M93.0667 16.5333H30.6667V32.8H93.0667V16.5333Z" fill="white"/>
</mask>
<g mask="url(#mask5_203_3208)">
<path d="M37.8637 29.1544L36.0887 26.5961H34.1346V29.1544H32.0096V19.9627H35.9846C36.7981 19.9627 37.5054 20.0992 38.1054 20.3711C38.7054 20.644 39.1658 21.0294 39.4887 21.5294C39.8137 22.0273 39.9762 22.6169 39.9762 23.3002C39.9762 23.9815 39.8117 24.569 39.4846 25.0627C39.1565 25.5575 38.6898 25.9367 38.0846 26.2002L40.1471 29.1544H37.8637ZM37.8221 23.3002C37.8221 22.7836 37.6554 22.3877 37.3221 22.1127C36.9908 21.8356 36.5065 21.6961 35.8679 21.6961H34.1346V24.9002H35.8679C36.5065 24.9002 36.9908 24.7606 37.3221 24.4794C37.6554 24.1992 37.8221 23.8065 37.8221 23.3002Z" fill="black"/>
<path d="M52.4883 27.4461V29.1544H45.3758V19.9627H52.3175V21.6711H47.4883V23.6669H51.755V25.3211H47.4883V27.4461H52.4883Z" fill="black"/>
<path d="M59.8016 21.6961H56.8641V19.9627H64.8725V21.6961H61.9308V29.1544H59.8016V21.6961Z" fill="black"/>
<path d="M75.5858 29.1544L73.8108 26.5961H71.8566V29.1544H69.7316V19.9627H73.7066C74.5202 19.9627 75.2275 20.0992 75.8275 20.3711C76.4275 20.644 76.8879 21.0294 77.2108 21.5294C77.5358 22.0273 77.6983 22.6169 77.6983 23.3002C77.6983 23.9815 77.5337 24.569 77.2066 25.0627C76.8785 25.5575 76.4118 25.9367 75.8066 26.2002L77.8691 29.1544H75.5858ZM75.5441 23.3002C75.5441 22.7836 75.3775 22.3877 75.0441 22.1127C74.7129 21.8356 74.2285 21.6961 73.59 21.6961H71.8566V24.9002H73.59C74.2285 24.9002 74.7129 24.7606 75.0441 24.4794C75.3775 24.1992 75.5441 23.8065 75.5441 23.3002Z" fill="black"/>
<path d="M91.5228 19.9627V29.1544H89.7769L85.1978 23.5752V29.1544H83.0978V19.9627H84.8561L89.4228 25.5419V19.9627H91.5228Z" fill="black"/>
</g>
</svg>
